{"glyphs":{"0":{"ha":697,"x_min":83,"x_max":614,"o":"m 83 111 l 83 420 l 127 464 l 172 420 l 172 111 l 127 66 l 83 111 m 83 553 l 83 862 l 127 906 l 172 862 l 172 553 l 127 509 l 83 553 m 150 44 l 194 89 l 503 89 l 547 44 l 503 0 l 194 0 l 150 44 m 150 928 l 194 972 l 503 972 l 547 928 l 503 884 l 194 884 l 150 928 m 526 111 l 526 420 l 570 464 l 614 420 l 614 111 l 570 66 l 526 111 m 526 553 l 526 862 l 570 906 l 614 862 l 614 553 l 570 509 l 526 553 z "},"1":{"ha":255,"x_min":83,"x_max":172,"o":"m 83 44 l 83 425 l 127 470 l 172 425 l 172 44 l 127 0 l 83 44 m 83 558 l 83 929 l 127 974 l 172 929 l 172 558 l 127 514 l 83 558 z "},"2":{"ha":697,"x_min":83,"x_max":614,"o":"m 83 111 l 83 420 l 127 464 l 172 420 l 172 111 l 127 66 l 83 111 m 150 44 l 194 89 l 503 89 l 547 44 l 503 0 l 194 0 l 150 44 m 150 486 l 194 530 l 503 530 l 547 486 l 503 442 l 194 442 l 150 486 m 150 928 l 194 972 l 503 972 l 547 928 l 503 884 l 194 884 l 150 928 m 526 553 l 526 862 l 570 906 l 614 862 l 614 553 l 570 509 l 526 553 z "},"3":{"ha":631,"x_min":83,"x_max":547,"o":"m 83 44 l 127 89 l 437 89 l 481 44 l 437 0 l 127 0 l 83 44 m 83 486 l 127 530 l 437 530 l 481 486 l 437 442 l 127 442 l 83 486 m 83 928 l 127 972 l 437 972 l 481 928 l 437 884 l 127 884 l 83 928 m 459 111 l 459 420 l 503 464 l 547 420 l 547 111 l 503 66 l 459 111 m 459 553 l 459 862 l 503 906 l 547 862 l 547 553 l 503 509 l 459 553 z "},"4":{"ha":697,"x_min":83,"x_max":614,"o":"m 83 553 l 83 929 l 127 973 l 172 929 l 172 553 l 127 509 l 83 553 m 150 486 l 194 530 l 503 530 l 547 486 l 503 442 l 194 442 l 150 486 m 526 43 l 526 420 l 570 464 l 614 420 l 614 43 l 570 -1 l 526 43 m 526 553 l 526 929 l 570 973 l 614 929 l 614 553 l 570 509 l 526 553 z "},"5":{"ha":697,"x_min":83,"x_max":614,"o":"m 83 553 l 83 862 l 127 906 l 172 862 l 172 553 l 127 509 l 83 553 m 150 44 l 194 89 l 503 89 l 547 44 l 503 0 l 194 0 l 150 44 m 150 486 l 194 530 l 503 530 l 547 486 l 503 442 l 194 442 l 150 486 m 150 928 l 194 972 l 503 972 l 547 928 l 503 884 l 194 884 l 150 928 m 526 111 l 526 420 l 570 464 l 614 420 l 614 111 l 570 66 l 526 111 z "},"6":{"ha":697,"x_min":83,"x_max":614,"o":"m 83 111 l 83 420 l 127 464 l 172 420 l 172 111 l 127 66 l 83 111 m 83 553 l 83 862 l 127 906 l 172 862 l 172 553 l 127 509 l 83 553 m 150 44 l 194 89 l 503 89 l 547 44 l 503 0 l 194 0 l 150 44 m 150 486 l 194 530 l 503 530 l 547 486 l 503 442 l 194 442 l 150 486 m 150 928 l 194 972 l 503 972 l 547 928 l 503 884 l 194 884 l 150 928 m 526 111 l 526 420 l 570 464 l 614 420 l 614 111 l 570 66 l 526 111 z "},"7":{"ha":631,"x_min":83,"x_max":547,"o":"m 83 928 l 127 972 l 437 972 l 481 928 l 437 884 l 127 884 l 83 928 m 459 43 l 459 420 l 503 464 l 547 420 l 547 43 l 503 -1 l 459 43 m 459 553 l 459 862 l 503 906 l 547 862 l 547 553 l 503 509 l 459 553 z "},"8":{"ha":697,"x_min":83,"x_max":614,"o":"m 83 111 l 83 420 l 127 464 l 172 420 l 172 111 l 127 66 l 83 111 m 83 553 l 83 862 l 127 906 l 172 862 l 172 553 l 127 509 l 83 553 m 150 44 l 194 89 l 503 89 l 547 44 l 503 0 l 194 0 l 150 44 m 150 486 l 194 530 l 503 530 l 547 486 l 503 442 l 194 442 l 150 486 m 150 928 l 194 972 l 503 972 l 547 928 l 503 884 l 194 884 l 150 928 m 526 111 l 526 420 l 570 464 l 614 420 l 614 111 l 570 66 l 526 111 m 526 553 l 526 862 l 570 906 l 614 862 l 614 553 l 570 509 l 526 553 z "},"9":{"ha":697,"x_min":83,"x_max":614,"o":"m 83 553 l 83 862 l 127 906 l 172 862 l 172 553 l 127 509 l 83 553 m 150 44 l 194 89 l 503 89 l 547 44 l 503 0 l 194 0 l 150 44 m 150 486 l 194 530 l 503 530 l 547 486 l 503 442 l 194 442 l 150 486 m 150 928 l 194 972 l 503 972 l 547 928 l 503 884 l 194 884 l 150 928 m 526 111 l 526 420 l 570 464 l 614 420 l 614 111 l 570 66 l 526 111 m 526 553 l 526 862 l 570 906 l 614 862 l 614 553 l 570 509 l 526 553 z "},"\u0000":{"ha":1291,"x_min":0,"x_max":0,"o":""},"\n":{"ha":667,"x_min":0,"x_max":0,"o":""},"\r":{"ha":667,"x_min":0,"x_max":0,"o":""}," ":{"ha":694,"x_min":0,"x_max":0,"o":""},"!":{"ha":255,"x_min":83,"x_max":172,"o":"m 83 44 l 83 90 l 127 134 l 172 90 l 172 44 l 127 0 l 83 44 m 83 214 l 83 928 l 127 972 l 172 928 l 172 214 l 127 170 l 83 214 z "},"\"":{"ha":390,"x_min":83,"x_max":306,"o":"m 83 878 l 83 923 l 127 967 l 172 923 l 172 878 l 127 833 l 83 878 m 218 878 l 218 923 l 262 967 l 306 923 l 306 878 l 262 833 l 218 878 z "},"#":{"ha":758,"x_min":83,"x_max":674,"o":"m 83 233 l 127 277 l 227 277 l 262 374 l 127 374 l 83 419 l 127 463 l 294 463 l 353 625 l 410 652 l 437 595 l 389 463 l 469 463 l 528 625 l 585 652 l 611 595 l 563 463 l 630 463 l 674 419 l 630 374 l 530 374 l 495 277 l 630 277 l 674 233 l 630 189 l 463 189 l 404 26 l 347 0 l 321 57 l 369 189 l 289 189 l 229 26 l 173 0 l 146 57 l 195 189 l 127 189 l 83 233 m 321 277 l 401 277 l 437 374 l 356 374 l 321 277 z "},"$":{"ha":697,"x_min":83,"x_max":614,"o":"m 83 551 l 83 861 l 127 905 l 172 861 l 172 551 l 127 507 l 83 551 m 150 43 l 194 87 l 503 87 l 547 43 l 503 -1 l 393 -1 l 393 -83 l 349 -127 l 304 -83 l 304 -1 l 194 -1 l 150 43 m 150 485 l 194 529 l 503 529 l 547 485 l 503 441 l 194 441 l 150 485 m 150 927 l 194 971 l 304 971 l 304 1054 l 349 1098 l 393 1054 l 393 971 l 503 971 l 547 927 l 503 883 l 194 883 l 150 927 m 526 109 l 526 419 l 570 463 l 614 419 l 614 109 l 570 65 l 526 109 z "},"%":{"ha":976,"x_min":83,"x_max":892,"o":"m 83 561 l 83 765 l 107 789 l 132 765 l 132 561 l 107 536 l 83 561 m 119 524 l 143 547 l 312 547 l 336 524 l 312 499 l 143 499 l 119 524 m 119 801 l 143 825 l 312 825 l 336 801 l 312 777 l 143 777 l 119 801 m 191 60 l 708 958 l 768 974 l 785 913 l 268 16 l 208 0 l 191 60 m 323 561 l 323 765 l 348 789 l 372 765 l 372 561 l 348 536 l 323 561 m 604 210 l 604 414 l 628 438 l 652 414 l 652 210 l 628 186 l 604 210 m 640 173 l 664 197 l 832 197 l 857 173 l 832 149 l 664 149 l 640 173 m 640 450 l 664 474 l 832 474 l 857 450 l 832 427 l 664 427 l 640 450 m 844 210 l 844 414 l 868 438 l 892 414 l 892 210 l 868 186 l 844 210 z "},"(":{"ha":528,"x_min":83,"x_max":444,"o":"m 83 111 l 83 420 l 127 464 l 172 420 l 172 111 l 127 66 l 83 111 m 83 553 l 83 862 l 127 906 l 172 862 l 172 553 l 127 508 l 83 553 m 150 44 l 194 88 l 399 88 l 444 44 l 399 0 l 194 0 l 150 44 m 150 928 l 194 972 l 400 972 l 444 928 l 400 884 l 194 884 l 150 928 z "},")":{"ha":528,"x_min":83,"x_max":444,"o":"m 83 928 l 127 972 l 334 972 l 378 928 l 334 884 l 127 884 l 83 928 m 84 44 l 128 88 l 334 88 l 378 44 l 334 0 l 128 0 l 84 44 m 356 111 l 356 420 l 400 464 l 444 420 l 444 111 l 400 66 l 356 111 m 356 553 l 356 862 l 400 906 l 444 862 l 444 553 l 400 508 l 356 553 z "},"*":{"ha":573,"x_min":83,"x_max":490,"o":"m 83 812 l 100 872 l 199 930 l 100 987 l 83 1047 l 144 1063 l 243 1006 l 243 1120 l 287 1164 l 331 1120 l 331 1006 l 430 1063 l 490 1047 l 474 987 l 375 930 l 474 872 l 490 812 l 430 795 l 331 853 l 331 739 l 287 694 l 243 739 l 243 853 l 144 795 l 83 812 z "},"+":{"ha":918,"x_min":83,"x_max":834,"o":"m 83 445 l 127 489 l 395 489 l 439 445 l 395 401 l 127 401 l 83 445 m 414 114 l 414 376 l 458 420 l 503 376 l 503 114 l 458 69 l 414 114 m 414 509 l 414 776 l 458 820 l 503 776 l 503 509 l 458 464 l 414 509 m 484 445 l 528 489 l 789 489 l 834 445 l 789 401 l 528 401 l 484 445 z "},"-":{"ha":564,"x_min":83,"x_max":481,"o":"m 83 486 l 127 530 l 437 530 l 481 486 l 437 441 l 127 441 l 83 486 z "},".":{"ha":255,"x_min":83,"x_max":172,"o":"m 83 44 l 83 90 l 127 134 l 172 90 l 172 44 l 127 0 l 83 44 z "},"/":{"ha":753,"x_min":83,"x_max":669,"o":"m 83 60 l 304 444 l 365 460 l 381 399 l 160 16 l 100 0 l 83 60 m 371 558 l 592 942 l 652 958 l 669 898 l 448 514 l 387 498 l 371 558 z "},":":{"ha":255,"x_min":83,"x_max":172,"o":"m 83 44 l 83 90 l 127 134 l 172 90 l 172 44 l 127 0 l 83 44 m 83 312 l 83 358 l 127 402 l 172 358 l 172 312 l 127 268 l 83 312 z "},"<":{"ha":402,"x_min":83,"x_max":319,"o":"m 83 413 l 109 471 l 165 446 l 319 57 l 294 0 l 237 25 l 83 413 m 83 560 l 237 949 l 294 974 l 319 916 l 165 528 l 109 503 l 83 560 z "},"=":{"ha":764,"x_min":83,"x_max":680,"o":"m 83 260 l 127 304 l 635 304 l 680 260 l 635 215 l 127 215 l 83 260 m 83 501 l 127 545 l 635 545 l 680 501 l 635 457 l 127 457 l 83 501 z "},">":{"ha":402,"x_min":83,"x_max":319,"o":"m 83 57 l 237 446 l 294 471 l 319 413 l 165 25 l 109 0 l 83 57 m 83 916 l 109 974 l 165 949 l 319 560 l 294 503 l 237 528 l 83 916 z "},"?":{"ha":697,"x_min":83,"x_max":614,"o":"m 83 44 l 83 90 l 127 134 l 172 90 l 172 44 l 127 0 l 83 44 m 83 214 l 83 420 l 127 464 l 172 420 l 172 214 l 127 170 l 83 214 m 150 486 l 194 530 l 503 530 l 547 486 l 503 442 l 194 442 l 150 486 m 150 928 l 194 972 l 503 972 l 547 928 l 503 884 l 194 884 l 150 928 m 526 552 l 526 862 l 570 906 l 614 862 l 614 552 l 570 508 l 526 552 z "},"@":{"ha":3284,"x_min":83,"x_max":3200,"o":"m 83 111 l 83 420 l 127 464 l 172 420 l 172 111 l 127 66 l 83 111 m 83 553 l 83 862 l 127 906 l 172 862 l 172 553 l 127 508 l 83 553 m 150 44 l 194 88 l 503 88 l 547 44 l 503 0 l 194 0 l 150 44 m 150 486 l 194 530 l 503 530 l 547 486 l 503 442 l 194 442 l 150 486 m 150 928 l 194 972 l 503 972 l 547 928 l 503 884 l 194 884 l 150 928 m 730 44 l 730 420 l 774 465 l 819 420 l 819 44 l 774 0 l 730 44 m 796 486 l 840 530 l 1149 530 l 1194 486 l 1149 442 l 840 442 l 796 486 m 1377 44 l 1377 420 l 1421 465 l 1465 420 l 1465 44 l 1421 0 l 1377 44 m 1443 486 l 1487 530 l 1796 530 l 1841 486 l 1796 442 l 1487 442 l 1443 486 m 2023 111 l 2023 420 l 2067 464 l 2112 420 l 2112 111 l 2067 66 l 2023 111 m 2089 44 l 2134 88 l 2443 88 l 2487 44 l 2443 0 l 2134 0 l 2089 44 m 2089 486 l 2134 530 l 2443 530 l 2487 486 l 2443 442 l 2134 442 l 2089 486 m 2465 111 l 2465 420 l 2509 464 l 2553 420 l 2553 111 l 2509 66 l 2465 111 m 2736 44 l 2736 420 l 2780 465 l 2825 420 l 2825 44 l 2780 0 l 2736 44 m 2802 486 l 2846 530 l 3156 530 l 3200 486 l 3156 442 l 2846 442 l 2802 486 z "},"A":{"ha":697,"x_min":83,"x_max":614,"o":"m 83 44 l 83 420 l 127 464 l 172 420 l 172 44 l 127 0 l 83 44 m 83 552 l 83 862 l 127 906 l 172 862 l 172 552 l 127 508 l 83 552 m 150 486 l 194 530 l 503 530 l 547 486 l 503 442 l 194 442 l 150 486 m 150 928 l 194 972 l 503 972 l 547 928 l 503 884 l 194 884 l 150 928 m 526 44 l 526 420 l 570 464 l 614 420 l 614 44 l 570 0 l 526 44 m 526 552 l 526 862 l 570 906 l 614 862 l 614 552 l 570 508 l 526 552 z "},"B":{"ha":697,"x_min":83,"x_max":614,"o":"m 83 22 l 83 420 l 127 464 l 172 420 l 172 111 l 83 22 m 83 552 l 83 951 l 172 862 l 172 552 l 127 508 l 83 552 m 106 0 l 194 88 l 503 88 l 547 44 l 503 0 l 106 0 m 106 972 l 503 972 l 547 928 l 503 884 l 194 884 l 106 972 m 150 486 l 194 530 l 503 530 l 547 486 l 503 441 l 194 441 l 150 486 m 526 111 l 526 420 l 570 464 l 614 420 l 614 111 l 570 66 l 526 111 m 526 552 l 526 862 l 570 906 l 614 862 l 614 552 l 570 508 l 526 552 z "},"C":{"ha":631,"x_min":83,"x_max":547,"o":"m 83 111 l 83 420 l 127 464 l 172 420 l 172 111 l 127 66 l 83 111 m 83 553 l 83 862 l 127 906 l 172 862 l 172 553 l 127 508 l 83 553 m 150 44 l 194 88 l 503 88 l 547 44 l 503 0 l 194 0 l 150 44 m 150 928 l 194 972 l 503 972 l 547 928 l 503 884 l 194 884 l 150 928 z "},"D":{"ha":697,"x_min":83,"x_max":614,"o":"m 83 22 l 83 420 l 127 464 l 172 420 l 172 111 l 83 22 m 83 552 l 83 951 l 172 862 l 172 552 l 127 508 l 83 552 m 106 0 l 194 88 l 503 88 l 547 44 l 503 0 l 106 0 m 106 972 l 503 972 l 547 928 l 503 884 l 194 884 l 106 972 m 526 111 l 526 420 l 570 464 l 614 420 l 614 111 l 570 66 l 526 111 m 526 552 l 526 862 l 570 906 l 614 862 l 614 552 l 570 508 l 526 552 z "},"E":{"ha":631,"x_min":83,"x_max":547,"o":"m 83 111 l 83 420 l 127 464 l 172 420 l 172 111 l 127 66 l 83 111 m 83 553 l 83 862 l 127 906 l 172 862 l 172 553 l 127 508 l 83 553 m 150 44 l 194 88 l 503 88 l 547 44 l 503 0 l 194 0 l 150 44 m 150 486 l 194 530 l 503 530 l 547 486 l 503 442 l 194 442 l 150 486 m 150 928 l 194 972 l 503 972 l 547 928 l 503 884 l 194 884 l 150 928 z "},"F":{"ha":631,"x_min":83,"x_max":547,"o":"m 83 44 l 83 420 l 127 465 l 172 420 l 172 44 l 127 0 l 83 44 m 83 553 l 83 862 l 127 906 l 172 862 l 172 553 l 127 509 l 83 553 m 150 486 l 194 530 l 503 530 l 547 486 l 503 442 l 194 442 l 150 486 m 150 928 l 194 972 l 503 972 l 547 928 l 503 884 l 194 884 l 150 928 z "},"G":{"ha":697,"x_min":83,"x_max":614,"o":"m 83 111 l 83 420 l 127 464 l 172 420 l 172 111 l 127 66 l 83 111 m 83 553 l 83 862 l 127 906 l 172 862 l 172 553 l 127 508 l 83 553 m 150 44 l 194 88 l 503 88 l 547 44 l 503 0 l 194 0 l 150 44 m 150 928 l 194 972 l 503 972 l 547 928 l 503 884 l 194 884 l 150 928 m 253 486 l 297 530 l 503 530 l 547 486 l 503 442 l 297 442 l 253 486 m 526 111 l 526 420 l 570 464 l 614 420 l 614 111 l 570 66 l 526 111 z "},"H":{"ha":697,"x_min":83,"x_max":614,"o":"m 83 44 l 83 420 l 127 464 l 172 420 l 172 44 l 127 0 l 83 44 m 83 552 l 83 928 l 127 972 l 172 928 l 172 552 l 127 508 l 83 552 m 150 486 l 194 530 l 503 530 l 547 486 l 503 442 l 194 442 l 150 486 m 526 44 l 526 420 l 570 464 l 614 420 l 614 44 l 570 0 l 526 44 m 526 552 l 526 928 l 570 972 l 614 928 l 614 552 l 570 508 l 526 552 z "},"I":{"ha":255,"x_min":83,"x_max":172,"o":"m 83 44 l 83 420 l 127 464 l 172 420 l 172 44 l 127 0 l 83 44 m 83 552 l 83 928 l 127 972 l 172 928 l 172 552 l 127 508 l 83 552 z "},"J":{"ha":697,"x_min":83,"x_max":614,"o":"m 83 111 l 83 420 l 127 464 l 172 420 l 172 111 l 127 66 l 83 111 m 150 44 l 194 88 l 503 88 l 547 44 l 503 0 l 194 0 l 150 44 m 526 111 l 526 420 l 570 464 l 614 420 l 614 111 l 570 66 l 526 111 m 526 553 l 526 928 l 570 972 l 614 928 l 614 553 l 570 508 l 526 553 z "},"K":{"ha":697,"x_min":83,"x_max":614,"o":"m 83 44 l 83 419 l 127 463 l 172 419 l 172 44 l 127 0 l 83 44 m 83 551 l 83 928 l 127 972 l 172 928 l 172 551 l 127 507 l 83 551 m 150 486 l 194 530 l 503 530 l 547 486 l 503 441 l 194 441 l 150 486 m 208 566 l 208 628 l 551 972 l 613 972 l 613 909 l 270 566 l 208 566 m 526 44 l 526 419 l 570 463 l 614 419 l 614 44 l 570 0 l 526 44 z "},"L":{"ha":631,"x_min":83,"x_max":547,"o":"m 83 111 l 83 420 l 127 464 l 172 420 l 172 111 l 127 66 l 83 111 m 83 553 l 83 928 l 127 972 l 172 928 l 172 553 l 127 508 l 83 553 m 150 44 l 194 88 l 503 88 l 547 44 l 503 0 l 194 0 l 150 44 z "},"M":{"ha":951,"x_min":83,"x_max":867,"o":"m 83 44 l 83 419 l 127 463 l 172 419 l 172 44 l 127 0 l 83 44 m 83 551 l 83 861 l 127 905 l 172 861 l 172 551 l 127 507 l 83 551 m 149 928 l 193 972 l 409 972 l 454 928 l 409 884 l 193 884 l 149 928 m 431 551 l 431 861 l 475 905 l 519 861 l 519 551 l 475 507 l 431 551 m 498 928 l 542 972 l 758 972 l 802 928 l 758 884 l 542 884 l 498 928 m 779 44 l 779 419 l 823 463 l 867 419 l 867 44 l 823 0 l 779 44 m 779 551 l 779 861 l 823 905 l 867 861 l 867 551 l 823 507 l 779 551 z "},"N":{"ha":697,"x_min":83,"x_max":614,"o":"m 83 44 l 83 420 l 127 464 l 172 420 l 172 44 l 127 0 l 83 44 m 83 552 l 83 862 l 127 906 l 172 862 l 172 552 l 127 508 l 83 552 m 150 928 l 194 972 l 503 972 l 547 928 l 503 884 l 194 884 l 150 928 m 526 44 l 526 420 l 570 464 l 614 420 l 614 44 l 570 0 l 526 44 m 526 552 l 526 862 l 570 906 l 614 862 l 614 552 l 570 508 l 526 552 z "},"O":{"ha":697,"x_min":83,"x_max":614,"o":"m 83 111 l 83 420 l 127 464 l 172 420 l 172 111 l 127 66 l 83 111 m 83 553 l 83 862 l 127 906 l 172 862 l 172 553 l 127 508 l 83 553 m 150 44 l 194 88 l 503 88 l 547 44 l 503 0 l 194 0 l 150 44 m 150 928 l 194 972 l 503 972 l 547 928 l 503 884 l 194 884 l 150 928 m 526 111 l 526 420 l 570 464 l 614 420 l 614 111 l 570 66 l 526 111 m 526 553 l 526 862 l 570 906 l 614 862 l 614 553 l 570 508 l 526 553 z "},"P":{"ha":697,"x_min":83,"x_max":614,"o":"m 83 44 l 83 420 l 127 464 l 172 420 l 172 44 l 127 0 l 83 44 m 83 553 l 83 862 l 127 906 l 172 862 l 172 553 l 127 508 l 83 553 m 150 486 l 194 530 l 503 530 l 547 486 l 503 442 l 194 442 l 150 486 m 150 928 l 194 972 l 503 972 l 547 928 l 503 884 l 194 884 l 150 928 m 526 553 l 526 862 l 570 906 l 614 862 l 614 553 l 570 508 l 526 553 z "},"Q":{"ha":697,"x_min":83,"x_max":614,"o":"m 83 111 l 83 420 l 127 465 l 172 420 l 172 111 l 127 66 l 83 111 m 83 553 l 83 862 l 127 906 l 172 862 l 172 553 l 127 509 l 83 553 m 150 44 l 194 89 l 457 89 l 501 44 l 457 0 l 194 0 l 150 44 m 150 928 l 194 972 l 503 972 l 547 928 l 503 884 l 194 884 l 150 928 m 463 113 l 463 176 l 526 176 l 614 89 l 614 26 l 551 26 l 463 113 m 526 209 l 526 420 l 570 465 l 614 420 l 614 209 l 570 164 l 526 209 m 526 553 l 526 862 l 570 906 l 614 862 l 614 553 l 570 509 l 526 553 z "},"R":{"ha":699,"x_min":83,"x_max":614,"o":"m 83 44 l 83 420 l 127 464 l 172 420 l 172 44 l 127 0 l 83 44 m 83 553 l 83 862 l 127 906 l 172 862 l 172 553 l 127 508 l 83 553 m 150 486 l 194 530 l 503 530 l 547 486 l 503 442 l 194 442 l 150 486 m 150 928 l 194 972 l 503 972 l 547 928 l 503 884 l 194 884 l 150 928 m 208 344 l 208 406 l 270 406 l 614 63 l 614 1 l 551 1 l 208 344 m 526 553 l 526 862 l 570 906 l 614 862 l 614 553 l 570 508 l 526 553 z "},"S":{"ha":697,"x_min":83,"x_max":614,"o":"m 83 553 l 83 862 l 127 906 l 172 862 l 172 553 l 127 508 l 83 553 m 150 44 l 194 88 l 503 88 l 547 44 l 503 0 l 194 0 l 150 44 m 150 486 l 194 530 l 503 530 l 547 486 l 503 442 l 194 442 l 150 486 m 150 928 l 194 972 l 503 972 l 547 928 l 503 884 l 194 884 l 150 928 m 526 111 l 526 420 l 570 464 l 614 420 l 614 111 l 570 66 l 526 111 z "},"T":{"ha":812,"x_min":83,"x_max":728,"o":"m 83 928 l 127 972 l 339 972 l 383 928 l 339 884 l 127 884 l 83 928 m 361 44 l 361 420 l 406 464 l 450 420 l 450 44 l 406 0 l 361 44 m 361 553 l 361 862 l 406 906 l 450 862 l 450 553 l 406 508 l 361 553 m 429 928 l 473 972 l 684 972 l 728 928 l 684 884 l 473 884 l 429 928 z "},"U":{"ha":697,"x_min":83,"x_max":614,"o":"m 83 111 l 83 420 l 127 464 l 172 420 l 172 111 l 127 66 l 83 111 m 83 553 l 83 928 l 127 972 l 172 928 l 172 553 l 127 508 l 83 553 m 150 44 l 194 88 l 503 88 l 547 44 l 503 0 l 194 0 l 150 44 m 526 111 l 526 420 l 570 464 l 614 420 l 614 111 l 570 66 l 526 111 m 526 553 l 526 928 l 570 972 l 614 928 l 614 553 l 570 508 l 526 553 z "},"V":{"ha":697,"x_min":83,"x_max":614,"o":"m 83 413 l 109 471 l 165 446 l 319 57 l 294 0 l 237 25 l 83 413 m 83 553 l 83 928 l 127 972 l 172 928 l 172 553 l 127 509 l 83 553 m 378 57 l 531 446 l 589 471 l 614 413 l 460 25 l 404 0 l 378 57 m 526 553 l 526 928 l 570 972 l 614 928 l 614 553 l 570 509 l 526 553 z "},"W":{"ha":951,"x_min":83,"x_max":867,"o":"m 83 111 l 83 421 l 127 465 l 172 421 l 172 111 l 127 67 l 83 111 m 83 553 l 83 928 l 127 972 l 172 928 l 172 553 l 127 509 l 83 553 m 149 44 l 193 88 l 409 88 l 454 44 l 409 0 l 193 0 l 149 44 m 431 111 l 431 421 l 475 465 l 519 421 l 519 111 l 475 67 l 431 111 m 498 44 l 542 88 l 758 88 l 802 44 l 758 0 l 542 0 l 498 44 m 779 111 l 779 421 l 823 465 l 867 421 l 867 111 l 823 67 l 779 111 m 779 553 l 779 928 l 823 972 l 867 928 l 867 553 l 823 509 l 779 553 z "},"X":{"ha":697,"x_min":83,"x_max":614,"o":"m 83 57 l 237 446 l 294 471 l 319 413 l 165 25 l 109 0 l 83 57 m 83 916 l 109 974 l 165 949 l 319 560 l 294 503 l 237 528 l 83 916 m 378 413 l 404 471 l 460 446 l 614 57 l 589 0 l 531 25 l 378 413 m 378 560 l 531 949 l 589 974 l 614 916 l 460 528 l 404 503 l 378 560 z "},"Y":{"ha":697,"x_min":83,"x_max":614,"o":"m 83 553 l 83 928 l 127 972 l 172 928 l 172 553 l 127 508 l 83 553 m 150 44 l 194 88 l 503 88 l 547 44 l 503 0 l 194 0 l 150 44 m 150 486 l 194 530 l 503 530 l 547 486 l 503 442 l 194 442 l 150 486 m 526 111 l 526 420 l 570 464 l 614 420 l 614 111 l 570 66 l 526 111 m 526 553 l 526 928 l 570 972 l 614 928 l 614 553 l 570 508 l 526 553 z "},"Z":{"ha":697,"x_min":83,"x_max":613,"o":"m 83 928 l 127 972 l 488 972 l 532 928 l 488 884 l 127 884 l 83 928 m 105 159 l 274 452 l 334 467 l 351 407 l 182 115 l 121 99 l 105 159 m 163 44 l 208 88 l 569 88 l 613 44 l 569 0 l 208 0 l 163 44 m 340 566 l 511 863 l 572 879 l 588 819 l 417 522 l 356 506 l 340 566 z "},"[":{"ha":528,"x_min":83,"x_max":444,"o":"m 83 22 l 83 420 l 127 464 l 172 420 l 172 111 l 83 22 m 83 552 l 83 951 l 172 862 l 172 552 l 127 508 l 83 552 m 106 0 l 194 88 l 400 88 l 444 44 l 400 0 l 106 0 m 106 972 l 400 972 l 444 928 l 400 884 l 194 884 l 106 972 z "},"\\":{"ha":753,"x_min":83,"x_max":669,"o":"m 83 898 l 100 958 l 160 942 l 381 558 l 365 498 l 304 514 l 83 898 m 371 399 l 387 460 l 448 444 l 669 60 l 652 0 l 592 16 l 371 399 z "},"]":{"ha":528,"x_min":83,"x_max":444,"o":"m 83 44 l 127 88 l 334 88 l 422 0 l 127 0 l 83 44 m 83 928 l 127 972 l 422 972 l 334 884 l 127 884 l 83 928 m 356 111 l 356 420 l 400 464 l 444 420 l 444 22 l 356 111 m 356 552 l 356 862 l 444 951 l 444 552 l 400 508 l 356 552 z "},"^":{"ha":1141,"x_min":83,"x_max":1057,"o":"m 83 441 l 109 499 l 496 652 l 554 627 l 529 570 l 140 416 l 83 441 m 587 627 l 644 652 l 1032 499 l 1057 441 l 1000 416 l 612 570 l 587 627 z "},"_":{"ha":866,"x_min":83,"x_max":783,"o":"m 83 44 l 127 88 l 738 88 l 783 44 l 738 0 l 127 0 l 83 44 z "},"a":{"ha":697,"x_min":83,"x_max":614,"o":"m 83 44 l 83 420 l 127 464 l 172 420 l 172 44 l 127 0 l 83 44 m 83 552 l 83 862 l 127 906 l 172 862 l 172 552 l 127 508 l 83 552 m 150 486 l 194 530 l 503 530 l 547 486 l 503 442 l 194 442 l 150 486 m 150 928 l 194 972 l 503 972 l 547 928 l 503 884 l 194 884 l 150 928 m 526 44 l 526 420 l 570 464 l 614 420 l 614 44 l 570 0 l 526 44 m 526 552 l 526 862 l 570 906 l 614 862 l 614 552 l 570 508 l 526 552 z "},"b":{"ha":697,"x_min":83,"x_max":614,"o":"m 83 22 l 83 420 l 127 464 l 172 420 l 172 111 l 83 22 m 83 552 l 83 951 l 172 862 l 172 552 l 127 508 l 83 552 m 106 0 l 194 88 l 503 88 l 547 44 l 503 0 l 106 0 m 106 972 l 503 972 l 547 928 l 503 884 l 194 884 l 106 972 m 150 486 l 194 530 l 503 530 l 547 486 l 503 441 l 194 441 l 150 486 m 526 111 l 526 420 l 570 464 l 614 420 l 614 111 l 570 66 l 526 111 m 526 552 l 526 862 l 570 906 l 614 862 l 614 552 l 570 508 l 526 552 z "},"c":{"ha":631,"x_min":83,"x_max":547,"o":"m 83 111 l 83 420 l 127 464 l 172 420 l 172 111 l 127 66 l 83 111 m 83 553 l 83 862 l 127 906 l 172 862 l 172 553 l 127 508 l 83 553 m 150 44 l 194 88 l 503 88 l 547 44 l 503 0 l 194 0 l 150 44 m 150 928 l 194 972 l 503 972 l 547 928 l 503 884 l 194 884 l 150 928 z "},"d":{"ha":697,"x_min":83,"x_max":614,"o":"m 83 22 l 83 420 l 127 464 l 172 420 l 172 111 l 83 22 m 83 552 l 83 951 l 172 862 l 172 552 l 127 508 l 83 552 m 106 0 l 194 88 l 503 88 l 547 44 l 503 0 l 106 0 m 106 972 l 503 972 l 547 928 l 503 884 l 194 884 l 106 972 m 526 111 l 526 420 l 570 464 l 614 420 l 614 111 l 570 66 l 526 111 m 526 552 l 526 862 l 570 906 l 614 862 l 614 552 l 570 508 l 526 552 z "},"e":{"ha":631,"x_min":83,"x_max":547,"o":"m 83 111 l 83 420 l 127 464 l 172 420 l 172 111 l 127 66 l 83 111 m 83 553 l 83 862 l 127 906 l 172 862 l 172 553 l 127 508 l 83 553 m 150 44 l 194 88 l 503 88 l 547 44 l 503 0 l 194 0 l 150 44 m 150 486 l 194 530 l 503 530 l 547 486 l 503 442 l 194 442 l 150 486 m 150 928 l 194 972 l 503 972 l 547 928 l 503 884 l 194 884 l 150 928 z "},"f":{"ha":631,"x_min":83,"x_max":547,"o":"m 83 44 l 83 420 l 127 465 l 172 420 l 172 44 l 127 0 l 83 44 m 83 553 l 83 862 l 127 906 l 172 862 l 172 553 l 127 509 l 83 553 m 150 486 l 194 530 l 503 530 l 547 486 l 503 442 l 194 442 l 150 486 m 150 928 l 194 972 l 503 972 l 547 928 l 503 884 l 194 884 l 150 928 z "},"g":{"ha":697,"x_min":83,"x_max":614,"o":"m 83 111 l 83 420 l 127 464 l 172 420 l 172 111 l 127 66 l 83 111 m 83 553 l 83 862 l 127 906 l 172 862 l 172 553 l 127 508 l 83 553 m 150 44 l 194 88 l 503 88 l 547 44 l 503 0 l 194 0 l 150 44 m 150 928 l 194 972 l 503 972 l 547 928 l 503 884 l 194 884 l 150 928 m 253 486 l 297 530 l 503 530 l 547 486 l 503 442 l 297 442 l 253 486 m 526 111 l 526 420 l 570 464 l 614 420 l 614 111 l 570 66 l 526 111 z "},"h":{"ha":697,"x_min":83,"x_max":614,"o":"m 83 44 l 83 420 l 127 464 l 172 420 l 172 44 l 127 0 l 83 44 m 83 552 l 83 928 l 127 972 l 172 928 l 172 552 l 127 508 l 83 552 m 150 486 l 194 530 l 503 530 l 547 486 l 503 442 l 194 442 l 150 486 m 526 44 l 526 420 l 570 464 l 614 420 l 614 44 l 570 0 l 526 44 m 526 552 l 526 928 l 570 972 l 614 928 l 614 552 l 570 508 l 526 552 z "},"i":{"ha":255,"x_min":83,"x_max":172,"o":"m 83 44 l 83 420 l 127 464 l 172 420 l 172 44 l 127 0 l 83 44 m 83 552 l 83 928 l 127 972 l 172 928 l 172 552 l 127 508 l 83 552 z "},"j":{"ha":697,"x_min":83,"x_max":614,"o":"m 83 111 l 83 420 l 127 464 l 172 420 l 172 111 l 127 66 l 83 111 m 150 44 l 194 88 l 503 88 l 547 44 l 503 0 l 194 0 l 150 44 m 526 111 l 526 420 l 570 464 l 614 420 l 614 111 l 570 66 l 526 111 m 526 553 l 526 928 l 570 972 l 614 928 l 614 553 l 570 508 l 526 553 z "},"k":{"ha":697,"x_min":83,"x_max":614,"o":"m 83 44 l 83 419 l 127 463 l 172 419 l 172 44 l 127 0 l 83 44 m 83 551 l 83 928 l 127 972 l 172 928 l 172 551 l 127 507 l 83 551 m 150 486 l 194 530 l 503 530 l 547 486 l 503 441 l 194 441 l 150 486 m 208 566 l 208 628 l 551 972 l 613 972 l 613 909 l 270 566 l 208 566 m 526 44 l 526 419 l 570 463 l 614 419 l 614 44 l 570 0 l 526 44 z "},"l":{"ha":631,"x_min":83,"x_max":547,"o":"m 83 111 l 83 420 l 127 464 l 172 420 l 172 111 l 127 66 l 83 111 m 83 553 l 83 928 l 127 972 l 172 928 l 172 553 l 127 508 l 83 553 m 150 44 l 194 88 l 503 88 l 547 44 l 503 0 l 194 0 l 150 44 z "},"m":{"ha":951,"x_min":83,"x_max":867,"o":"m 83 44 l 83 419 l 127 463 l 172 419 l 172 44 l 127 0 l 83 44 m 83 551 l 83 861 l 127 905 l 172 861 l 172 551 l 127 507 l 83 551 m 149 928 l 193 972 l 409 972 l 454 928 l 409 884 l 193 884 l 149 928 m 431 551 l 431 861 l 475 905 l 519 861 l 519 551 l 475 507 l 431 551 m 498 928 l 542 972 l 758 972 l 802 928 l 758 884 l 542 884 l 498 928 m 779 44 l 779 419 l 823 463 l 867 419 l 867 44 l 823 0 l 779 44 m 779 551 l 779 861 l 823 905 l 867 861 l 867 551 l 823 507 l 779 551 z "},"n":{"ha":697,"x_min":83,"x_max":614,"o":"m 83 44 l 83 420 l 127 464 l 172 420 l 172 44 l 127 0 l 83 44 m 83 552 l 83 862 l 127 906 l 172 862 l 172 552 l 127 508 l 83 552 m 150 928 l 194 972 l 503 972 l 547 928 l 503 884 l 194 884 l 150 928 m 526 44 l 526 420 l 570 464 l 614 420 l 614 44 l 570 0 l 526 44 m 526 552 l 526 862 l 570 906 l 614 862 l 614 552 l 570 508 l 526 552 z "},"o":{"ha":697,"x_min":83,"x_max":614,"o":"m 83 111 l 83 420 l 127 464 l 172 420 l 172 111 l 127 66 l 83 111 m 83 553 l 83 862 l 127 906 l 172 862 l 172 553 l 127 508 l 83 553 m 150 44 l 194 88 l 503 88 l 547 44 l 503 0 l 194 0 l 150 44 m 150 928 l 194 972 l 503 972 l 547 928 l 503 884 l 194 884 l 150 928 m 526 111 l 526 420 l 570 464 l 614 420 l 614 111 l 570 66 l 526 111 m 526 553 l 526 862 l 570 906 l 614 862 l 614 553 l 570 508 l 526 553 z "},"p":{"ha":697,"x_min":83,"x_max":614,"o":"m 83 44 l 83 420 l 127 464 l 172 420 l 172 44 l 127 0 l 83 44 m 83 553 l 83 862 l 127 906 l 172 862 l 172 553 l 127 508 l 83 553 m 150 486 l 194 530 l 503 530 l 547 486 l 503 442 l 194 442 l 150 486 m 150 928 l 194 972 l 503 972 l 547 928 l 503 884 l 194 884 l 150 928 m 526 553 l 526 862 l 570 906 l 614 862 l 614 553 l 570 508 l 526 553 z "},"q":{"ha":697,"x_min":83,"x_max":614,"o":"m 83 111 l 83 420 l 127 465 l 172 420 l 172 111 l 127 66 l 83 111 m 83 553 l 83 862 l 127 906 l 172 862 l 172 553 l 127 509 l 83 553 m 150 44 l 194 89 l 457 89 l 501 44 l 457 0 l 194 0 l 150 44 m 150 928 l 194 972 l 503 972 l 547 928 l 503 884 l 194 884 l 150 928 m 463 113 l 463 176 l 526 176 l 614 89 l 614 26 l 551 26 l 463 113 m 526 209 l 526 420 l 570 465 l 614 420 l 614 209 l 570 164 l 526 209 m 526 553 l 526 862 l 570 906 l 614 862 l 614 553 l 570 509 l 526 553 z "},"r":{"ha":699,"x_min":83,"x_max":614,"o":"m 83 44 l 83 420 l 127 464 l 172 420 l 172 44 l 127 0 l 83 44 m 83 553 l 83 862 l 127 906 l 172 862 l 172 553 l 127 508 l 83 553 m 150 486 l 194 530 l 503 530 l 547 486 l 503 442 l 194 442 l 150 486 m 150 928 l 194 972 l 503 972 l 547 928 l 503 884 l 194 884 l 150 928 m 208 344 l 208 406 l 270 406 l 614 63 l 614 1 l 551 1 l 208 344 m 526 553 l 526 862 l 570 906 l 614 862 l 614 553 l 570 508 l 526 553 z "},"s":{"ha":697,"x_min":83,"x_max":614,"o":"m 83 553 l 83 862 l 127 906 l 172 862 l 172 553 l 127 508 l 83 553 m 150 44 l 194 88 l 503 88 l 547 44 l 503 0 l 194 0 l 150 44 m 150 486 l 194 530 l 503 530 l 547 486 l 503 442 l 194 442 l 150 486 m 150 928 l 194 972 l 503 972 l 547 928 l 503 884 l 194 884 l 150 928 m 526 111 l 526 420 l 570 464 l 614 420 l 614 111 l 570 66 l 526 111 z "},"t":{"ha":812,"x_min":83,"x_max":728,"o":"m 83 928 l 127 972 l 339 972 l 383 928 l 339 884 l 127 884 l 83 928 m 361 44 l 361 420 l 406 464 l 450 420 l 450 44 l 406 0 l 361 44 m 361 553 l 361 862 l 406 906 l 450 862 l 450 553 l 406 508 l 361 553 m 429 928 l 473 972 l 684 972 l 728 928 l 684 884 l 473 884 l 429 928 z "},"u":{"ha":697,"x_min":83,"x_max":614,"o":"m 83 111 l 83 420 l 127 464 l 172 420 l 172 111 l 127 66 l 83 111 m 83 553 l 83 928 l 127 972 l 172 928 l 172 553 l 127 508 l 83 553 m 150 44 l 194 88 l 503 88 l 547 44 l 503 0 l 194 0 l 150 44 m 526 111 l 526 420 l 570 464 l 614 420 l 614 111 l 570 66 l 526 111 m 526 553 l 526 928 l 570 972 l 614 928 l 614 553 l 570 508 l 526 553 z "},"v":{"ha":697,"x_min":83,"x_max":614,"o":"m 83 413 l 109 471 l 165 446 l 319 57 l 294 0 l 237 25 l 83 413 m 83 553 l 83 928 l 127 972 l 172 928 l 172 553 l 127 509 l 83 553 m 378 57 l 531 446 l 589 471 l 614 413 l 460 25 l 404 0 l 378 57 m 526 553 l 526 928 l 570 972 l 614 928 l 614 553 l 570 509 l 526 553 z "},"w":{"ha":951,"x_min":83,"x_max":867,"o":"m 83 111 l 83 421 l 127 465 l 172 421 l 172 111 l 127 67 l 83 111 m 83 553 l 83 928 l 127 972 l 172 928 l 172 553 l 127 509 l 83 553 m 149 44 l 193 88 l 409 88 l 454 44 l 409 0 l 193 0 l 149 44 m 431 111 l 431 421 l 475 465 l 519 421 l 519 111 l 475 67 l 431 111 m 498 44 l 542 88 l 758 88 l 802 44 l 758 0 l 542 0 l 498 44 m 779 111 l 779 421 l 823 465 l 867 421 l 867 111 l 823 67 l 779 111 m 779 553 l 779 928 l 823 972 l 867 928 l 867 553 l 823 509 l 779 553 z "},"x":{"ha":697,"x_min":83,"x_max":614,"o":"m 83 57 l 237 446 l 294 471 l 319 413 l 165 25 l 109 0 l 83 57 m 83 916 l 109 974 l 165 949 l 319 560 l 294 503 l 237 528 l 83 916 m 378 413 l 404 471 l 460 446 l 614 57 l 589 0 l 531 25 l 378 413 m 378 560 l 531 949 l 589 974 l 614 916 l 460 528 l 404 503 l 378 560 z "},"y":{"ha":697,"x_min":83,"x_max":614,"o":"m 83 553 l 83 928 l 127 972 l 172 928 l 172 553 l 127 508 l 83 553 m 150 44 l 194 88 l 503 88 l 547 44 l 503 0 l 194 0 l 150 44 m 150 486 l 194 530 l 503 530 l 547 486 l 503 442 l 194 442 l 150 486 m 526 111 l 526 420 l 570 464 l 614 420 l 614 111 l 570 66 l 526 111 m 526 553 l 526 928 l 570 972 l 614 928 l 614 553 l 570 508 l 526 553 z "},"z":{"ha":697,"x_min":83,"x_max":613,"o":"m 83 928 l 127 972 l 488 972 l 532 928 l 488 884 l 127 884 l 83 928 m 105 159 l 274 452 l 334 467 l 351 407 l 182 115 l 121 99 l 105 159 m 163 44 l 208 88 l 569 88 l 613 44 l 569 0 l 208 0 l 163 44 m 340 566 l 511 863 l 572 879 l 588 819 l 417 522 l 356 506 l 340 566 z "},"{":{"ha":667,"x_min":83,"x_max":583,"o":"m 83 486 l 127 531 l 197 531 l 241 486 l 197 442 l 127 442 l 83 486 m 222 111 l 222 420 l 266 464 l 310 420 l 310 111 l 266 66 l 222 111 m 222 553 l 222 862 l 266 906 l 310 862 l 310 553 l 266 508 l 222 553 m 288 44 l 332 88 l 538 88 l 582 44 l 538 0 l 332 0 l 288 44 m 288 928 l 332 972 l 538 972 l 583 928 l 538 884 l 332 884 l 288 928 z "},"|":{"ha":255,"x_min":83,"x_max":172,"o":"m 83 44 l 83 1033 l 127 1077 l 172 1033 l 172 44 l 127 0 l 83 44 z "},"}":{"ha":667,"x_min":83,"x_max":583,"o":"m 83 928 l 127 972 l 334 972 l 378 928 l 334 884 l 127 884 l 83 928 m 84 44 l 128 88 l 334 88 l 378 44 l 334 0 l 128 0 l 84 44 m 356 111 l 356 420 l 400 464 l 444 420 l 444 111 l 400 66 l 356 111 m 356 553 l 356 862 l 400 906 l 444 862 l 444 553 l 400 508 l 356 553 m 425 486 l 469 531 l 538 531 l 583 486 l 538 442 l 469 442 l 425 486 z "}," ":{"ha":1000,"x_min":0,"x_max":0,"o":""},"©":{"ha":696,"x_min":83,"x_max":612,"o":"m 83 113 l 83 486 l 127 530 l 172 486 l 172 113 l 127 68 l 83 113 m 149 44 l 193 88 l 502 88 l 546 44 l 502 0 l 193 0 l 149 44 m 149 553 l 193 597 l 502 597 l 546 553 l 502 509 l 193 509 l 149 553 m 236 224 l 236 373 l 257 394 l 278 373 l 278 224 l 257 203 l 236 224 m 268 192 l 289 213 l 438 213 l 459 192 l 438 170 l 289 170 l 268 192 m 268 405 l 289 426 l 438 426 l 459 405 l 438 383 l 289 383 l 268 405 m 524 113 l 524 486 l 568 530 l 612 486 l 612 113 l 568 68 l 524 113 z "},"«":{"ha":625,"x_min":83,"x_max":541,"o":"m 83 413 l 109 471 l 165 446 l 319 57 l 294 0 l 237 25 l 83 413 m 83 560 l 237 949 l 294 974 l 319 916 l 165 528 l 109 503 l 83 560 m 305 413 l 330 471 l 387 446 l 541 57 l 515 0 l 458 25 l 305 413 m 305 560 l 458 949 l 515 974 l 541 916 l 387 528 l 330 503 l 305 560 z "},"­":{"ha":564,"x_min":83,"x_max":481,"o":"m 83 486 l 127 530 l 437 530 l 481 486 l 437 441 l 127 441 l 83 486 z "},"»":{"ha":625,"x_min":83,"x_max":541,"o":"m 83 57 l 237 446 l 294 471 l 319 413 l 165 25 l 109 0 l 83 57 m 83 916 l 109 974 l 165 949 l 319 560 l 294 503 l 237 528 l 83 916 m 305 57 l 458 446 l 515 471 l 541 413 l 387 25 l 330 0 l 305 57 m 305 916 l 330 974 l 387 949 l 541 560 l 515 503 l 458 528 l 305 916 z "},"Á":{"ha":697,"x_min":83,"x_max":614,"o":"m 83 44 l 83 420 l 127 464 l 172 420 l 172 44 l 127 0 l 83 44 m 83 552 l 83 862 l 127 906 l 172 862 l 172 552 l 127 508 l 83 552 m 150 486 l 194 530 l 503 530 l 547 486 l 503 442 l 194 442 l 150 486 m 150 928 l 194 972 l 503 972 l 547 928 l 503 884 l 194 884 l 150 928 m 307 1017 l 307 1080 l 427 1200 l 490 1200 l 490 1138 l 369 1017 l 307 1017 m 526 44 l 526 420 l 570 464 l 614 420 l 614 44 l 570 0 l 526 44 m 526 552 l 526 862 l 570 906 l 614 862 l 614 552 l 570 508 l 526 552 z "},"Ä":{"ha":697,"x_min":83,"x_max":614,"o":"m 83 44 l 83 420 l 127 464 l 172 420 l 172 44 l 127 0 l 83 44 m 83 552 l 83 862 l 127 906 l 172 862 l 172 552 l 127 508 l 83 552 m 150 486 l 194 530 l 503 530 l 547 486 l 503 442 l 194 442 l 150 486 m 150 928 l 194 972 l 503 972 l 547 928 l 503 884 l 194 884 l 150 928 m 193 1057 l 193 1109 l 237 1153 l 282 1109 l 282 1057 l 237 1013 l 193 1057 m 415 1057 l 415 1109 l 459 1153 l 503 1109 l 503 1057 l 459 1013 l 415 1057 m 526 44 l 526 420 l 570 464 l 614 420 l 614 44 l 570 0 l 526 44 m 526 552 l 526 862 l 570 906 l 614 862 l 614 552 l 570 508 l 526 552 z "},"Ç":{"ha":631,"x_min":83,"x_max":547,"o":"m 83 110 l 83 419 l 127 463 l 172 419 l 172 110 l 127 66 l 83 110 m 83 552 l 83 861 l 127 905 l 172 861 l 172 552 l 127 507 l 83 552 m 150 43 l 194 87 l 503 87 l 547 43 l 503 -1 l 194 -1 l 150 43 m 150 927 l 194 972 l 503 972 l 547 927 l 503 883 l 194 883 l 150 927 m 271 -85 l 315 -41 l 359 -85 l 359 -136 l 315 -180 l 271 -136 l 271 -85 z "},"É":{"ha":631,"x_min":83,"x_max":547,"o":"m 83 111 l 83 420 l 127 464 l 172 420 l 172 111 l 127 66 l 83 111 m 83 553 l 83 862 l 127 906 l 172 862 l 172 553 l 127 508 l 83 553 m 150 44 l 194 88 l 503 88 l 547 44 l 503 0 l 194 0 l 150 44 m 150 486 l 194 530 l 503 530 l 547 486 l 503 442 l 194 442 l 150 486 m 150 928 l 194 972 l 503 972 l 547 928 l 503 884 l 194 884 l 150 928 m 275 1017 l 275 1080 l 396 1200 l 458 1200 l 458 1138 l 338 1017 l 275 1017 z "},"Ë":{"ha":631,"x_min":83,"x_max":547,"o":"m 83 111 l 83 420 l 127 464 l 172 420 l 172 111 l 127 66 l 83 111 m 83 553 l 83 862 l 127 906 l 172 862 l 172 553 l 127 508 l 83 553 m 150 44 l 194 88 l 503 88 l 547 44 l 503 0 l 194 0 l 150 44 m 150 486 l 194 530 l 503 530 l 547 486 l 503 442 l 194 442 l 150 486 m 150 928 l 194 972 l 503 972 l 547 928 l 503 884 l 194 884 l 150 928 m 160 1058 l 160 1109 l 205 1154 l 249 1109 l 249 1058 l 205 1013 l 160 1058 m 382 1058 l 382 1109 l 426 1154 l 471 1109 l 471 1058 l 426 1013 l 382 1058 z "},"Ò":{"ha":697,"x_min":83,"x_max":614,"o":"m 83 111 l 83 420 l 127 464 l 172 420 l 172 111 l 127 66 l 83 111 m 83 553 l 83 862 l 127 906 l 172 862 l 172 553 l 127 508 l 83 553 m 150 44 l 194 88 l 503 88 l 547 44 l 503 0 l 194 0 l 150 44 m 150 928 l 194 972 l 503 972 l 547 928 l 503 884 l 194 884 l 150 928 m 257 1017 l 257 1080 l 378 1200 l 440 1200 l 440 1138 l 319 1017 l 257 1017 m 526 111 l 526 420 l 570 464 l 614 420 l 614 111 l 570 66 l 526 111 m 526 553 l 526 862 l 570 906 l 614 862 l 614 553 l 570 508 l 526 553 z "},"Ö":{"ha":697,"x_min":83,"x_max":614,"o":"m 83 111 l 83 420 l 127 464 l 172 420 l 172 111 l 127 66 l 83 111 m 83 553 l 83 862 l 127 906 l 172 862 l 172 553 l 127 508 l 83 553 m 150 44 l 194 88 l 503 88 l 547 44 l 503 0 l 194 0 l 150 44 m 150 928 l 194 972 l 503 972 l 547 928 l 503 884 l 194 884 l 150 928 m 193 1058 l 193 1109 l 237 1154 l 282 1109 l 282 1058 l 237 1013 l 193 1058 m 415 1058 l 415 1109 l 459 1154 l 503 1109 l 503 1058 l 459 1013 l 415 1058 m 526 111 l 526 420 l 570 464 l 614 420 l 614 111 l 570 66 l 526 111 m 526 553 l 526 862 l 570 906 l 614 862 l 614 553 l 570 508 l 526 553 z "},"Ù":{"ha":697,"x_min":83,"x_max":614,"o":"m 83 111 l 83 420 l 127 464 l 172 420 l 172 111 l 127 66 l 83 111 m 83 553 l 83 928 l 127 972 l 172 928 l 172 553 l 127 508 l 83 553 m 150 44 l 194 88 l 503 88 l 547 44 l 503 0 l 194 0 l 150 44 m 257 1017 l 257 1080 l 378 1200 l 440 1200 l 440 1138 l 319 1017 l 257 1017 m 526 111 l 526 420 l 570 464 l 614 420 l 614 111 l 570 66 l 526 111 m 526 553 l 526 928 l 570 972 l 614 928 l 614 553 l 570 508 l 526 553 z "},"Ü":{"ha":697,"x_min":83,"x_max":614,"o":"m 83 111 l 83 420 l 127 464 l 172 420 l 172 111 l 127 66 l 83 111 m 83 553 l 83 928 l 127 972 l 172 928 l 172 553 l 127 508 l 83 553 m 150 44 l 194 88 l 503 88 l 547 44 l 503 0 l 194 0 l 150 44 m 193 1058 l 193 1109 l 237 1154 l 282 1109 l 282 1058 l 237 1013 l 193 1058 m 415 1058 l 415 1109 l 459 1154 l 503 1109 l 503 1058 l 459 1013 l 415 1058 m 526 111 l 526 420 l 570 464 l 614 420 l 614 111 l 570 66 l 526 111 m 526 553 l 526 928 l 570 972 l 614 928 l 614 553 l 570 508 l 526 553 z "},"ß":{"ha":631,"x_min":83,"x_max":547,"o":"m 83 44 l 127 88 l 437 88 l 481 44 l 437 0 l 127 0 l 83 44 m 83 486 l 127 530 l 437 530 l 481 486 l 437 442 l 127 442 l 83 486 m 83 928 l 127 972 l 437 972 l 481 928 l 437 884 l 127 884 l 83 928 m 203 162 l 203 368 l 247 412 l 291 368 l 291 162 l 247 118 l 203 162 m 203 604 l 203 810 l 247 854 l 291 810 l 291 604 l 247 559 l 203 604 m 459 111 l 459 420 l 503 464 l 547 420 l 547 111 l 503 66 l 459 111 m 459 553 l 459 862 l 503 906 l 547 862 l 547 553 l 503 508 l 459 553 z "},"ç":{"ha":631,"x_min":83,"x_max":547,"o":"m 83 110 l 83 419 l 127 463 l 172 419 l 172 110 l 127 66 l 83 110 m 83 552 l 83 861 l 127 905 l 172 861 l 172 552 l 127 507 l 83 552 m 150 43 l 194 87 l 503 87 l 547 43 l 503 -1 l 194 -1 l 150 43 m 150 927 l 194 972 l 503 972 l 547 927 l 503 883 l 194 883 l 150 927 m 271 -85 l 315 -41 l 359 -85 l 359 -136 l 315 -180 l 271 -136 l 271 -85 z "},"ö":{"ha":697,"x_min":83,"x_max":614,"o":"m 83 111 l 83 420 l 127 464 l 172 420 l 172 111 l 127 66 l 83 111 m 83 553 l 83 862 l 127 906 l 172 862 l 172 553 l 127 508 l 83 553 m 150 44 l 194 88 l 503 88 l 547 44 l 503 0 l 194 0 l 150 44 m 150 928 l 194 972 l 503 972 l 547 928 l 503 884 l 194 884 l 150 928 m 193 1058 l 193 1109 l 237 1154 l 282 1109 l 282 1058 l 237 1013 l 193 1058 m 415 1058 l 415 1109 l 459 1154 l 503 1109 l 503 1058 l 459 1013 l 415 1058 m 526 111 l 526 420 l 570 464 l 614 420 l 614 111 l 570 66 l 526 111 m 526 553 l 526 862 l 570 906 l 614 862 l 614 553 l 570 508 l 526 553 z "},"÷":{"ha":764,"x_min":83,"x_max":680,"o":"m 83 269 l 127 313 l 635 313 l 680 269 l 635 224 l 127 224 l 83 269 m 337 44 l 337 90 l 381 134 l 425 90 l 425 44 l 381 0 l 337 44 m 337 452 l 337 497 l 381 541 l 425 497 l 425 452 l 381 407 l 337 452 z "},"ü":{"ha":697,"x_min":83,"x_max":614,"o":"m 83 111 l 83 420 l 127 464 l 172 420 l 172 111 l 127 66 l 83 111 m 83 553 l 83 928 l 127 972 l 172 928 l 172 553 l 127 508 l 83 553 m 150 44 l 194 88 l 503 88 l 547 44 l 503 0 l 194 0 l 150 44 m 193 1058 l 193 1109 l 237 1154 l 282 1109 l 282 1058 l 237 1013 l 193 1058 m 415 1058 l 415 1109 l 459 1154 l 503 1109 l 503 1058 l 459 1013 l 415 1058 m 526 111 l 526 420 l 570 464 l 614 420 l 614 111 l 570 66 l 526 111 m 526 553 l 526 928 l 570 972 l 614 928 l 614 553 l 570 508 l 526 553 z "}," ":{"ha":600,"x_min":0,"x_max":0,"o":""}," ":{"ha":1200,"x_min":0,"x_max":0,"o":""}," ":{"ha":600,"x_min":0,"x_max":0,"o":""}," ":{"ha":1200,"x_min":0,"x_max":0,"o":""}," ":{"ha":400,"x_min":0,"x_max":0,"o":""}," ":{"ha":300,"x_min":0,"x_max":0,"o":""}," ":{"ha":200,"x_min":0,"x_max":0,"o":""}," ":{"ha":200,"x_min":0,"x_max":0,"o":""}," ":{"ha":150,"x_min":0,"x_max":0,"o":""}," ":{"ha":240,"x_min":0,"x_max":0,"o":""}," ":{"ha":66,"x_min":0,"x_max":0,"o":""},"‐":{"ha":564,"x_min":83,"x_max":481,"o":"m 83 486 l 127 530 l 437 530 l 481 486 l 437 441 l 127 441 l 83 486 z "},"‑":{"ha":564,"x_min":83,"x_max":481,"o":"m 83 486 l 127 530 l 437 530 l 481 486 l 437 441 l 127 441 l 83 486 z "},"‒":{"ha":564,"x_min":83,"x_max":481,"o":"m 83 486 l 127 530 l 437 530 l 481 486 l 437 441 l 127 441 l 83 486 z "},"–":{"ha":861,"x_min":83,"x_max":778,"o":"m 83 486 l 161 530 l 701 530 l 778 486 l 701 441 l 161 441 l 83 486 z "},"—":{"ha":1555,"x_min":83,"x_max":1472,"o":"m 83 486 l 237 530 l 1318 530 l 1472 486 l 1318 441 l 237 441 l 83 486 z "},"‘":{"ha":378,"x_min":83,"x_max":293,"o":"m 83 477 l 217 708 l 277 724 l 293 664 l 160 433 l 100 416 l 83 477 z "}," ":{"ha":240,"x_min":0,"x_max":0,"o":""}," ":{"ha":300,"x_min":0,"x_max":0,"o":""},"€":{"ha":631,"x_min":83,"x_max":547,"o":"m 83 111 l 83 420 l 127 464 l 172 420 l 172 111 l 127 66 l 83 111 m 83 553 l 83 862 l 127 906 l 172 862 l 172 553 l 127 508 l 83 553 m 150 44 l 194 88 l 503 88 l 547 44 l 503 0 l 194 0 l 150 44 m 150 486 l 194 530 l 503 530 l 547 486 l 503 442 l 194 442 l 150 486 m 150 928 l 194 972 l 503 972 l 547 928 l 503 884 l 194 884 l 150 928 m 222 285 l 266 330 l 435 330 l 479 285 l 435 241 l 266 241 l 222 285 m 222 687 l 266 731 l 435 731 l 479 687 l 435 643 l 266 643 l 222 687 z "},"◼":{"ha":972,"x_min":0,"x_max":972,"o":"m 0 0 l 0 972 l 972 972 l 972 0 l 0 0 z "}}}
